<?xml version="1.0" encoding="UTF-8" standalone="no"?>
<svg
   width="48pt"
   height="48pt"
   viewBox="0 0 16.933334 16.933333"
   version="1.1"
   id="svg979"
   inkscape:version="1.1 (c68e22c387, 2021-05-23)"
   sodipodi:docname="14 - Clapperboard.svg"
   xmlns:inkscape="http://www.inkscape.org/namespaces/inkscape"
   xmlns:sodipodi="http://sodipodi.sourceforge.net/DTD/sodipodi-0.dtd"
   xmlns="http://www.w3.org/2000/svg"
   xmlns:svg="http://www.w3.org/2000/svg">
  
  <defs
     id="defs973" />
  
  <g
     inkscape:label="Layer 1"
     inkscape:groupmode="layer"
     id="layer1"
     transform="translate(0,-280.06668)">
    <path
       d="m 14.565177,281.2124 c -0.04199,-0.007 -0.08616,-0.007 -0.130508,0.002 l -12.9240388,2.79932 c -0.1766288,0.0384 -0.2884418,0.21321 -0.2489188,0.38961 l 0.3539611,1.63103 c -0.3956511,0.36842 -0.6455334,0.89204 -0.6455334,1.4725 0,0.73705 0.4009325,1.38197 0.9950388,1.73225 v 6.29491 c 2.167e-4,0.17972 0.1455815,0.3251 0.3253122,0.3253 H 15.63788 c 0.179732,-2e-4 0.325096,-0.14558 0.325314,-0.3253 v -7.2473 c -2.11e-4,-0.17975 -0.145579,-0.32574 -0.325314,-0.32595 H 4.9413793 c 0.034125,-0.14624 0.054119,-0.29758 0.054119,-0.45391 0,-0.17791 -0.02618,-0.34979 -0.070023,-0.5144 L 15.204352,284.7662 c 0.176931,-0.0371 0.290201,-0.21098 0.252104,-0.38769 l -0.631528,-2.91255 c -0.02797,-0.13344 -0.133753,-0.23061 -0.25974,-0.25401 z m -0.310037,0.71047 0.493383,2.27655 -1.431125,0.31004 -1.668584,-2.02191 z m -3.32125,0.71938 1.665402,2.02255 -3.1372678,0.67927 -1.8124603,-1.99007 z m -4.0208974,0.87154 1.8124606,1.99007 -3.4084675,0.73784 -1.6666731,-2.02127 z m -3.980788,0.86199 1.2611457,1.52788 c -0.3379843,-0.25644 -0.7576743,-0.41062 -1.2121258,-0.41062 -0.277416,0 -0.5415702,0.0571 -0.7824075,0.15979 l -0.2310927,-1.06826 z m 0.049019,1.76852 c 0.7553321,0 1.3604568,0.60767 1.3604581,1.36301 -1.3e-6,0.75534 -0.605126,1.35982 -1.3604581,1.35982 -0.7553322,0 -1.3598224,-0.60448 -1.3598224,-1.35982 0,-0.75534 0.6044902,-1.36301 1.3598224,-1.36301 z m 1.6800422,2.46818 H 4.8751694 L 3.698058,290.89986 H 2.6164396 v -1.41585 c 0.1185615,0.0219 0.2400563,0.0343 0.3647838,0.0343 0.6997103,0 1.3187288,-0.36105 1.6800422,-0.90591 z m 0.9485652,0 h 3.4854988 l -1.32672,2.28738 H 4.4327181 Z m 4.2392582,0 h 3.2072938 l -1.175203,2.28738 H 8.5236437 Z m 3.9400448,0 h 1.522795 v 2.28738 H 12.612022 Z M 2.6164396,291.55366 H 15.311929 v 3.65485 H 2.6164408 Z m 1.1739282,0.76905 a 0.32691278,0.32691278 0 0 0 0,0.65381 h 1.8060925 v 1.09499 c 0,0.43587 0.6538098,0.43587 0.6538098,0 v -1.09499 h 2.1925214 v 1.09499 c -0.022162,0.45575 0.673432,0.45575 0.6512634,0 v -1.09499 h 2.1950701 v 1.09499 c -0.02216,0.45575 0.67343,0.45575 0.651261,0 v -1.09499 h 2.163874 a 0.32691278,0.32691278 0 1 0 0,-0.65381 z"
       style="fill:#8C7954;fill-opacity:1;stroke:none"
       id="rect1706" />
  </g>
</svg>